<?xml version="1.0" encoding="UTF-8"?>
<!DOCTYPE svg PUBLIC "-//W3C//DTD SVG 1.1//EN" "http://www.w3.org/Graphics/SVG/1.1/DTD/svg11.dtd">
<!-- Creator: CorelDRAW X7 -->
<svg xmlns="http://www.w3.org/2000/svg" xml:space="preserve" width="56px" height="56px" version="1.1" style="shape-rendering:geometricPrecision; text-rendering:geometricPrecision; image-rendering:optimizeQuality; fill-rule:evenodd; clip-rule:evenodd"
viewBox="0 0 56 56"
 xmlns:xlink="http://www.w3.org/1999/xlink"
 enable-background="new 0 0 96 96">
 <defs>
  <style type="text/css">
   <![CDATA[
    .fil0 {fill:none}
    .fil1 {fill:#201E1E;fill-rule:nonzero}
   ]]>
  </style>
 </defs>
 <g id="Layer_x0020_1">
  <metadata id="CorelCorpID_0Corel-Layer"/>
  <g id="_2867714727936">
   <rect id="canvas_background" class="fil0" x="-25" y="-25" width="1819" height="1256"/>
  </g>
  <path class="fil1" d="M28 1c8,0 14,3 19,8l0 0c5,5 8,11 8,19 0,8 -3,14 -8,19l0 0c-5,5 -11,8 -19,8 -8,0 -14,-3 -19,-8l0 0c-5,-5 -8,-11 -8,-19 0,-8 3,-14 8,-19l0 0c5,-5 11,-8 19,-8zm16 11c-4,-4 -10,-7 -16,-7 -6,0 -12,3 -16,7 -4,4 -7,10 -7,16 0,6 3,12 7,16 4,4 10,7 16,7 6,0 12,-3 16,-7 4,-4 7,-10 7,-16 0,-6 -3,-12 -7,-16z"/>
  <path class="fil1" d="M28 5c3,0 6,2 8,7 2,4 3,10 3,16 0,6 -1,12 -3,16 -2,5 -5,7 -8,7 -3,0 -6,-2 -8,-7 -2,-4 -3,-10 -3,-16 0,-6 1,-12 3,-16 2,-5 5,-7 8,-7zm5 8c-1,-3 -3,-5 -5,-5 -2,0 -4,2 -5,5 -2,4 -3,9 -3,15 0,6 1,11 3,15 1,3 3,5 5,5 2,0 4,-2 5,-5 2,-4 3,-9 3,-15 0,-6 -1,-11 -3,-15z"/>
  <path class="fil1" d="M51 28c0,3 -2,6 -7,8 -4,2 -10,3 -16,3 -6,0 -12,-1 -16,-3 -5,-2 -7,-5 -7,-8 0,-3 2,-6 7,-8 4,-2 10,-3 16,-3 6,0 12,1 16,3 5,2 7,5 7,8zm-8 5c3,-1 5,-3 5,-5 0,-2 -2,-4 -5,-5 -4,-2 -9,-3 -15,-3 -6,0 -11,1 -15,3 -3,1 -5,3 -5,5 0,2 2,4 5,5 4,2 9,3 15,3 6,0 11,-1 15,-3z"/>
 </g>
</svg>
