<?xml version="1.0" encoding="UTF-8"?>
<!DOCTYPE svg PUBLIC "-//W3C//DTD SVG 1.1//EN" "http://www.w3.org/Graphics/SVG/1.1/DTD/svg11.dtd">
<!-- Creator: CorelDRAW X7 -->
<svg xmlns="http://www.w3.org/2000/svg" xml:space="preserve" width="56px" height="56px" version="1.1" style="shape-rendering:geometricPrecision; text-rendering:geometricPrecision; image-rendering:optimizeQuality; fill-rule:evenodd; clip-rule:evenodd"
viewBox="0 0 56 56"
 xmlns:xlink="http://www.w3.org/1999/xlink"
 enable-background="new 0 0 96 96">
 <defs>
  <style type="text/css">
   <![CDATA[
    .fil0 {fill:black}
   ]]>
  </style>
 </defs>
 <g id="Layer_x0020_1">
  <metadata id="CorelCorpID_0Corel-Layer"/>
  <g id="_2867723413760">
   <path class="fil0" d="M54 50l-14 -13c3,-4 5,-9 5,-14 0,-12 -10,-22 -22,-22 -12,0 -22,10 -22,22 0,12 10,22 22,22 5,0 10,-2 14,-5l13 14c1,1 3,1 4,0 1,-1 1,-3 0,-4zm-31 -10c-9,0 -17,-7 -17,-17 0,-9 8,-17 17,-17 10,0 17,8 17,17 0,10 -7,17 -17,17z"/>
   <path class="fil0" d="M30 21l-4 0 0 -5c0,-1 -2,-3 -3,-3 -1,0 -2,2 -2,3l0 5 -5 0c-1,0 -3,1 -3,2 0,1 2,3 3,3l5 0 0 4c0,2 1,3 2,3 1,0 3,-1 3,-3l0 -4 4 0c2,0 3,-2 3,-3 0,-1 -1,-2 -3,-2z"/>
  </g>
 </g>
</svg>
